<?xml version="1.0" encoding="UTF-8" standalone="no"?>
<!DOCTYPE svg PUBLIC "-//W3C//DTD SVG 1.1//EN" "http://www.w3.org/Graphics/SVG/1.1/DTD/svg11.dtd">
<svg width="100%" height="100%" viewBox="0 0 492 326" version="1.1" xmlns="http://www.w3.org/2000/svg" xmlns:xlink="http://www.w3.org/1999/xlink" xml:space="preserve" xmlns:serif="http://www.serif.com/" style="fill-rule:evenodd;clip-rule:evenodd;stroke-linecap:round;stroke-linejoin:round;stroke-miterlimit:1.5;">
    <g transform="matrix(1,0,0,1,-3254,0)">
        <g id="Artboard6" transform="matrix(0.153483,0,0,0.537961,2754.43,0)">
            <rect x="3254.88" y="0" width="3204.88" height="604.653" style="fill:none;"/>
            <g transform="matrix(6.53743,0,0,1.512,-363.815,839.351)">
                <g transform="matrix(0.876031,0,0,0.876031,-275.135,177.468)">
                    <g transform="matrix(1,0,0,1,-17.5621,-238.244)">
                        <g transform="matrix(1,0,0,1,353.871,-194.096)">
                            <path d="M778.814,18.789L654.985,18.789" style="fill:none;stroke:rgb(76,76,76);stroke-width:25px;"/>
                        </g>
                        <g transform="matrix(1,0,0,1,390.854,-73.5736)">
                            <path d="M618.001,-235.188L618.001,-101.733" style="fill:none;stroke:rgb(76,76,76);stroke-width:25px;"/>
                        </g>
                        <g transform="matrix(1,0,0,1,514.684,-73.5736)">
                            <path d="M618.001,-235.188L618.001,-101.733" style="fill:none;stroke:rgb(76,76,76);stroke-width:25px;"/>
                        </g>
                        <g transform="matrix(1,0,0,1,452.769,-73.5736)">
                            <path d="M618.001,-235.188L618.001,-101.733" style="fill:none;stroke:rgb(76,76,76);stroke-width:25px;"/>
                        </g>
                    </g>
                    <g transform="matrix(1,0,0,1,-41.9561,-238.244)">
                        <g transform="matrix(1,0,0,1,549.893,-194.096)">
                            <path d="M778.814,18.789L654.985,18.789" style="fill:none;stroke:rgb(76,76,76);stroke-width:25px;"/>
                        </g>
                        <g transform="matrix(1,0,0,1,549.893,-327.551)">
                            <path d="M778.814,18.789L654.985,18.789" style="fill:none;stroke:rgb(76,76,76);stroke-width:25px;"/>
                        </g>
                        <g transform="matrix(1,0,0,1,549.893,-260.823)">
                            <path d="M778.814,18.789L654.985,18.789" style="fill:none;stroke:rgb(76,76,76);stroke-width:25px;"/>
                        </g>
                        <g transform="matrix(1,0,0,1,586.876,-73.5736)">
                            <path d="M618.001,-235.188L618.001,-101.733" style="fill:none;stroke:rgb(76,76,76);stroke-width:25px;"/>
                        </g>
                    </g>
                    <g transform="matrix(1,0,0,1,-41.9561,-238.244)">
                        <g transform="matrix(1,0,0,1,882.334,-73.5736)">
                            <path d="M618.001,-168.461L618.001,-101.733" style="fill:none;stroke:rgb(76,76,76);stroke-width:25px;"/>
                        </g>
                        <g transform="matrix(1,0,0,1,721.521,-194.096)">
                            <path d="M778.814,18.789L654.985,18.789" style="fill:none;stroke:rgb(76,76,76);stroke-width:25px;"/>
                        </g>
                        <g transform="matrix(1,0,0,1,721.521,-327.551)">
                            <path d="M765.623,85.517L765.623,18.789L654.985,18.789" style="fill:none;stroke:rgb(76,76,76);stroke-width:25px;"/>
                        </g>
                        <g transform="matrix(1,0,0,1,721.521,-260.823)">
                            <path d="M778.814,18.789L654.985,18.789" style="fill:none;stroke:rgb(76,76,76);stroke-width:25px;"/>
                        </g>
                        <g transform="matrix(1,0,0,1,758.504,-73.5736)">
                            <path d="M618.001,-235.188L618.001,-101.733" style="fill:none;stroke:rgb(76,76,76);stroke-width:25px;"/>
                        </g>
                    </g>
                </g>
                <g transform="matrix(1.4369,0,0,1.31805,-347.876,-550.298)">
                    <path d="M778.814,18.789L654.985,18.789L654.985,85.517L778.814,85.517L778.814,152.244L654.985,152.244" style="fill:none;stroke:rgb(76,76,76);stroke-width:15.74px;"/>
                </g>
                <g transform="matrix(1.4369,0,0,1.31805,-366.561,-118.571)">
                    <g>
                        <g transform="matrix(1,0,0,1,175.047,-194.096)">
                            <path d="M778.814,18.789L654.985,18.789" style="fill:none;stroke:rgb(76,76,76);stroke-width:15.74px;"/>
                        </g>
                        <g transform="matrix(1,0,0,1,212.03,-73.5736)">
                            <path d="M618.001,-235.188L618.001,-101.733" style="fill:none;stroke:rgb(76,76,76);stroke-width:15.74px;"/>
                        </g>
                    </g>
                </g>
            </g>
        </g>
    </g>
</svg>
